<?xml version="1.0" encoding="utf-8"?>
<!-- Generator: Adobe Illustrator 17.0.2, SVG Export Plug-In . SVG Version: 6.00 Build 0)  -->
<!DOCTYPE svg PUBLIC "-//W3C//DTD SVG 1.1//EN" "http://www.w3.org/Graphics/SVG/1.1/DTD/svg11.dtd">
<svg version="1.1" id="Ebene_1" xmlns="http://www.w3.org/2000/svg" xmlns:xlink="http://www.w3.org/1999/xlink" x="0px" y="0px" viewBox="0 0 265 105" enable-background="new 0 0 265 105" xml:space="preserve">
<g>
	<path fill="#FFCC05" d="M125.182,72.759V44.156c0-0.45,0.203-0.833,0.609-1.149c0.405-0.315,0.923-0.473,1.555-0.473
		c0.585,0,1.082,0.16,1.488,0.479c0.405,0.32,0.608,0.708,0.608,1.164v3.357c0.812-1.505,2.005-2.782,3.584-3.833
		c1.577-1.049,3.403-1.574,5.477-1.574h2.367c0.45,0,0.856,0.207,1.218,0.619c0.359,0.412,0.54,0.894,0.54,1.443
		c0,0.55-0.181,1.032-0.54,1.444c-0.362,0.412-0.767,0.618-1.218,0.618h-2.367c-2.344,0-4.418,0.911-6.221,2.732
		c-1.803,1.822-2.705,4.194-2.705,7.117v16.661c0,0.45-0.215,0.854-0.643,1.214c-0.429,0.361-0.958,0.54-1.589,0.54
		c-0.586,0-1.094-0.18-1.521-0.541C125.395,73.616,125.182,73.209,125.182,72.759z"/>
	<path fill="#FFCC05" d="M145.062,62.142v-7.37c0-3.425,1.261-6.39,3.786-8.891c2.524-2.502,5.522-3.753,8.994-3.753
		c3.471,0,6.491,1.241,9.06,3.719c2.57,2.48,3.855,5.455,3.855,8.926v7.37c0,3.381-1.297,6.368-3.888,8.959
		c-2.592,2.594-5.602,3.888-9.027,3.888c-3.381,0-6.356-1.294-8.926-3.888C146.348,68.51,145.062,65.523,145.062,62.142z
		 M149.458,62.122c0,2.287,0.821,4.316,2.468,6.087c1.644,1.771,3.617,2.656,5.917,2.656c2.343,0,4.349-0.885,6.017-2.656
		c1.668-1.771,2.503-3.8,2.503-6.087v-7.329c0-2.196-0.845-4.169-2.536-5.917c-1.69-1.749-3.686-2.623-5.984-2.623
		c-2.299,0-4.272,0.875-5.917,2.623c-1.647,1.749-2.468,3.721-2.468,5.917V62.122z"/>
	<path fill="#FFCC05" d="M177.991,72.759V24.546c0-0.45,0.203-0.833,0.61-1.149c0.404-0.315,0.922-0.473,1.554-0.473
		c0.63,0,1.161,0.158,1.589,0.473c0.428,0.316,0.642,0.699,0.642,1.149v32.931l16.5-14.674c0.449-0.27,0.787-0.405,1.014-0.405
		c0.54,0,1.047,0.215,1.521,0.643c0.473,0.429,0.709,0.913,0.709,1.453c0,0.541-0.158,0.947-0.474,1.218l-9.939,8.722l11.698,17.107
		c0.18,0.362,0.269,0.676,0.269,0.947c0,0.497-0.248,0.992-0.742,1.487c-0.497,0.497-1.038,0.745-1.624,0.745
		c-0.54,0-0.991-0.271-1.352-0.812l-11.359-16.701l-6.222,5.477v10.075c0,0.45-0.214,0.857-0.642,1.216
		c-0.428,0.362-0.959,0.541-1.589,0.541c-0.586,0-1.094-0.18-1.521-0.541C178.205,73.616,177.991,73.209,177.991,72.759z"/>
	<path fill="#FFCC05" d="M206.662,62.142v-7.573c0-3.381,1.26-6.299,3.785-8.757c2.525-2.456,5.568-3.685,9.128-3.685
		c3.426,0,6.392,1.174,8.893,3.521c2.501,2.346,3.753,5.279,3.753,8.8c0,1.26-0.148,2.27-0.441,3.035
		c-0.293,0.766-0.766,1.305-1.418,1.619c-0.655,0.314-1.252,0.518-1.793,0.608s-1.284,0.135-2.232,0.135h-15.28v2.501
		c0,2.66,0.956,4.79,2.874,6.389c1.915,1.601,4.382,2.401,7.404,2.401c1.532,0,2.874-0.225,4.023-0.676
		c1.149-0.45,2.029-0.901,2.639-1.352c0.607-0.45,1.091-0.676,1.453-0.676c0.497,0,0.935,0.236,1.318,0.711
		c0.383,0.473,0.576,0.935,0.576,1.385c0,0.947-0.969,1.927-2.908,2.941c-1.939,1.014-4.35,1.521-7.235,1.521
		c-4.284,0-7.776-1.183-10.481-3.55S206.662,65.974,206.662,62.142z M211.057,56.598h13.524c1.352,0,2.253-0.145,2.705-0.436
		c0.449-0.292,0.676-0.908,0.676-1.848c0-2.24-0.8-4.21-2.401-5.913c-1.601-1.702-3.619-2.554-6.051-2.554
		c-2.346,0-4.34,0.808-5.985,2.419c-1.646,1.613-2.467,3.539-2.467,5.779V56.598z"/>
	<path fill="#FFCC05" d="M238.711,64.59V29.008c0-0.45,0.226-0.833,0.676-1.148s0.947-0.473,1.488-0.473
		c0.585,0,1.104,0.158,1.554,0.471c0.45,0.315,0.676,0.696,0.676,1.144v13.531h8.723c0.45,0,0.821,0.184,1.116,0.551
		c0.292,0.368,0.44,0.803,0.44,1.308c0,0.505-0.148,0.941-0.44,1.309c-0.295,0.368-0.666,0.551-1.116,0.551h-8.723v18.239
		c0,2.191,0.462,3.722,1.387,4.593c0.923,0.872,2.558,1.307,4.902,1.307h1.893c0.586,0,1.071,0.198,1.454,0.594
		c0.383,0.396,0.574,0.874,0.574,1.433c0,0.56-0.191,1.049-0.574,1.469c-0.383,0.42-0.868,0.629-1.454,0.629h-1.893
		C242.271,74.516,238.711,71.208,238.711,64.59z"/>
	<path fill="#FFCC05" d="M258.929,32.221c-0.586-0.563-0.88-1.228-0.88-1.995c0-0.766,0.293-1.42,0.88-1.961
		c0.585-0.541,1.306-0.811,2.163-0.811c0.811,0,1.498,0.27,2.063,0.811c0.563,0.541,0.845,1.195,0.845,1.961
		c0,0.767-0.283,1.432-0.845,1.995c-0.565,0.564-1.252,0.845-2.063,0.845C260.235,33.067,259.514,32.785,258.929,32.221z
		 M258.929,72.759V44.156c0-0.45,0.202-0.833,0.608-1.149c0.407-0.315,0.924-0.473,1.556-0.473c0.631,0,1.16,0.158,1.589,0.473
		c0.428,0.316,0.643,0.699,0.643,1.149v28.603c0,0.45-0.227,0.857-0.676,1.216c-0.452,0.362-0.971,0.541-1.556,0.541
		c-0.586,0-1.094-0.18-1.521-0.541C259.141,73.616,258.929,73.209,258.929,72.759z"/>
</g>
<g>
	<path fill="#FFCC05" d="M103.158,2.708c0.032-0.741-0.255-1.46-0.788-1.977s-1.255-0.781-2.001-0.724
		c-29.849,2.239-48.515,19.299-63.55,38.25c-1.732-0.266-4.929-0.672-8.279-0.672c-4.373,0-7.589,0.669-9.833,2.045
		c-6.77,4.151-12.844,14.422-18.57,31.398c-0.317,0.939-0.071,1.977,0.632,2.674c0.495,0.491,1.155,0.753,1.829,0.753
		c0.285,0,0.572-0.046,0.851-0.144l15.608-5.413l18.186,17.609l-4.614,14.829c-0.294,0.947-0.025,1.978,0.696,2.659
		c0.49,0.464,1.132,0.71,1.785,0.71c0.305,0,0.613-0.054,0.908-0.164c16.783-6.27,26.852-12.672,30.784-19.572
		c3.005-5.274,1.365-15.275,0.718-18.535C85.964,50.715,101.891,32.396,103.158,2.708z M18.089,63.737L6.849,67.635
		c4.704-12.605,9.597-20.525,14.573-23.576c1.345-0.825,3.872-1.279,7.117-1.279c1.577,0,3.137,0.104,4.488,0.237L18.089,63.737z
		 M62.288,82.399c-2.89,5.072-10.648,10.217-23.095,15.324l3.534-11.358l20.239-15.607C63.514,75.003,63.633,80.038,62.288,82.399z
		 M50.177,73.81c-2.878,2.274-5.815,4.609-8.698,6.957l-1.502,1.158L23.149,65.631c1.764-2.42,3.531-4.891,5.251-7.295
		c0.594-0.83,1.189-1.662,1.785-2.493l3.142-4.358C49.159,29.703,66.697,8.962,97.784,5.466
		C95.122,38.298,72.284,56.344,50.177,73.81z"/>
	<path fill="#FFCC05" d="M88.723,14.412c-1.443-1.397-3.348-2.166-5.364-2.166c-2.139,0-4.14,0.85-5.635,2.394
		c-2.998,3.095-2.941,8.03,0.126,11.001c1.443,1.397,3.348,2.166,5.364,2.166c2.139,0,4.14-0.85,5.635-2.394
		C91.847,22.318,91.79,17.383,88.723,14.412z M86.603,23.238c-0.9,0.93-2.104,1.443-3.389,1.443c-1.201,0-2.333-0.457-3.19-1.286
		c-1.829-1.772-1.854-4.724-0.055-6.581c0.9-0.93,2.104-1.443,3.389-1.443c1.201,0,2.333,0.457,3.19,1.286
		C88.377,18.429,88.402,21.381,86.603,23.238z"/>
	<path fill="#FFCC05" d="M71.09,24.916c-2.139,0-4.14,0.85-5.635,2.394c-1.45,1.497-2.237,3.464-2.215,5.538
		c0.021,2.081,0.853,4.021,2.341,5.462c1.443,1.397,3.348,2.166,5.364,2.166c2.139,0,4.14-0.85,5.635-2.394
		c1.45-1.497,2.237-3.464,2.215-5.538c-0.021-2.081-0.853-4.021-2.341-5.462C75.011,25.685,73.107,24.916,71.09,24.916z
		 M74.335,35.908c-0.9,0.93-2.104,1.443-3.389,1.443c-1.201,0-2.333-0.457-3.19-1.286c-0.883-0.856-1.377-2.01-1.39-3.249
		c-0.014-1.247,0.461-2.43,1.335-3.332c0.9-0.93,2.104-1.443,3.389-1.443c1.201,0,2.333,0.457,3.19,1.286
		c0.883,0.856,1.377,2.01,1.39,3.249C75.684,33.823,75.209,35.006,74.335,35.908z"/>
	<path fill="#FFCC05" d="M58.654,37.759c-2.139,0-4.14,0.85-5.635,2.394c-2.997,3.096-2.941,8.03,0.126,11.001
		c1.443,1.397,3.348,2.166,5.364,2.166c2.14,0,4.141-0.85,5.636-2.393c1.45-1.498,2.236-3.465,2.215-5.539
		c-0.022-2.081-0.854-4.021-2.342-5.462C62.575,38.529,60.67,37.759,58.654,37.759z M61.9,48.752c-0.9,0.93-2.104,1.443-3.39,1.443
		c-1.201,0-2.333-0.457-3.19-1.286c-1.829-1.771-1.854-4.723-0.055-6.581c0.9-0.93,2.104-1.443,3.389-1.443
		c1.201,0,2.333,0.457,3.19,1.286c0.884,0.856,1.378,2.01,1.391,3.249C63.247,46.666,62.773,47.85,61.9,48.752z"/>
</g>
</svg>
